<svg xmlns="http://www.w3.org/2000/svg" xmlns:xlink="http://www.w3.org/1999/xlink" xmlns:s="https://github.com/nturley/netlistsvg" width="804" height="523.5">
  <style>svg {
    stroke:#000;
    fill:none;
  }
  text {
    fill:#000;
    stroke:none;
    font-size:10px;
    font-weight: bold;
    font-family: "Courier New", monospace;
  }
  .nodelabel {
    text-anchor: middle;
  }
  .inputPortLabel {
    text-anchor: end;
  }
  .splitjoinBody {
    fill:#000;
  }</style>
  <g s:type="add" transform="translate(644.3333333333334,23)" s:width="25" s:height="25" id="cell_$add$pwm.v:60$4">
    <s:alias val="$add"/>
    <circle r="12.5" cx="12.5" cy="12.5" class="cell_$add$pwm.v:60$4"/>
    <line x1="7.5" x2="17.5" y1="12.5" y2="12.5" class="cell_$add$pwm.v:60$4"/>
    <line x1="12.5" x2="12.5" y1="7.5" y2="17.5" class="cell_$add$pwm.v:60$4"/>
    <g s:x="3" s:y="5" s:pid="A"/>
    <g s:x="3" s:y="20" s:pid="B"/>
    <g s:x="25" s:y="12.5" s:pid="Y"/>
  </g>
  <g s:type="generic" transform="translate(125,328.5)" s:width="30" s:height="40" id="cell_$auto$proc_rom.cc:150:do_switch$8">
    <text x="15" y="-4" class="nodelabel cell_$auto$proc_rom.cc:150:do_switch$8" s:attribute="ref">$mem_v2</text>
    <rect width="30" height="180" s:generic="body" class="cell_$auto$proc_rom.cc:150:do_switch$8"/>
    <g transform="translate(0,10)" s:x="0" s:y="10" s:pid="in0" id="port_$auto$proc_rom.cc:150:do_switch$8~RD_ADDR">
      <text x="-3" y="-4" class="inputPortLabel cell_$auto$proc_rom.cc:150:do_switch$8">RD_ADDR</text>
    </g>
    <g transform="translate(0,30)" s:x="0" s:y="10" s:pid="in0" id="port_$auto$proc_rom.cc:150:do_switch$8~RD_ARST">
      <text x="-3" y="-4" class="inputPortLabel cell_$auto$proc_rom.cc:150:do_switch$8">RD_ARST</text>
    </g>
    <g transform="translate(0,50)" s:x="0" s:y="10" s:pid="in0" id="port_$auto$proc_rom.cc:150:do_switch$8~RD_CLK">
      <text x="-3" y="-4" class="inputPortLabel cell_$auto$proc_rom.cc:150:do_switch$8">RD_CLK</text>
    </g>
    <g transform="translate(0,70)" s:x="0" s:y="10" s:pid="in0" id="port_$auto$proc_rom.cc:150:do_switch$8~RD_EN">
      <text x="-3" y="-4" class="inputPortLabel cell_$auto$proc_rom.cc:150:do_switch$8">RD_EN</text>
    </g>
    <g transform="translate(0,90)" s:x="0" s:y="10" s:pid="in0" id="port_$auto$proc_rom.cc:150:do_switch$8~RD_SRST">
      <text x="-3" y="-4" class="inputPortLabel cell_$auto$proc_rom.cc:150:do_switch$8">RD_SRST</text>
    </g>
    <g transform="translate(0,110)" s:x="0" s:y="10" s:pid="in0" id="port_$auto$proc_rom.cc:150:do_switch$8~WR_ADDR">
      <text x="-3" y="-4" class="inputPortLabel cell_$auto$proc_rom.cc:150:do_switch$8">WR_ADDR</text>
    </g>
    <g transform="translate(0,130)" s:x="0" s:y="10" s:pid="in0" id="port_$auto$proc_rom.cc:150:do_switch$8~WR_CLK">
      <text x="-3" y="-4" class="inputPortLabel cell_$auto$proc_rom.cc:150:do_switch$8">WR_CLK</text>
    </g>
    <g transform="translate(0,150)" s:x="0" s:y="10" s:pid="in0" id="port_$auto$proc_rom.cc:150:do_switch$8~WR_DATA">
      <text x="-3" y="-4" class="inputPortLabel cell_$auto$proc_rom.cc:150:do_switch$8">WR_DATA</text>
    </g>
    <g transform="translate(0,170)" s:x="0" s:y="10" s:pid="in0" id="port_$auto$proc_rom.cc:150:do_switch$8~WR_EN">
      <text x="-3" y="-4" class="inputPortLabel cell_$auto$proc_rom.cc:150:do_switch$8">WR_EN</text>
    </g>
    <g transform="translate(30,10)" s:x="30" s:y="10" s:pid="out0" id="port_$auto$proc_rom.cc:150:do_switch$8~RD_DATA">
      <text x="5" y="-4" style="fill:#000; stroke:none" class="cell_$auto$proc_rom.cc:150:do_switch$8">RD_DATA</text>
    </g>
  </g>
  <g s:type="eq" transform="translate(644.3333333333334,148)" s:width="25" s:height="25" id="cell_$eq$pwm.v:57$3">
    <s:alias val="$eq"/>
    <circle r="12.5" cx="12.5" cy="12.5" class="cell_$eq$pwm.v:57$3"/>
    <line x1="7.5" x2="17.5" y1="10" y2="10" class="cell_$eq$pwm.v:57$3"/>
    <line x1="7.5" x2="17.5" y1="15" y2="15" class="cell_$eq$pwm.v:57$3"/>
    <g s:x="3" s:y="5" s:pid="A"/>
    <g s:x="3" s:y="20" s:pid="B"/>
    <g s:x="25" s:y="12.5" s:pid="Y"/>
  </g>
  <g s:type="lt" transform="translate(489,279)" s:width="25" s:height="25" id="cell_$lt$pwm.v:70$6">
    <s:alias val="$lt"/>
    <circle r="12.5" cx="12.5" cy="12.5" class="cell_$lt$pwm.v:70$6"/>
    <line x1="7.5" x2="17.5" y1="12.5" y2="7.5" class="cell_$lt$pwm.v:70$6"/>
    <line x1="7.5" x2="17.5" y1="12.5" y2="17.5" class="cell_$lt$pwm.v:70$6"/>
    <g s:x="3" s:y="5" s:pid="A"/>
    <g s:x="3" s:y="20" s:pid="B"/>
    <g s:x="25" s:y="12.5" s:pid="Y"/>
  </g>
  <g s:type="generic" transform="translate(639,331)" s:width="30" s:height="40" id="cell_$procdff$18">
    <text x="15" y="-4" class="nodelabel cell_$procdff$18" s:attribute="ref">$adff</text>
    <rect width="30" height="60" s:generic="body" class="cell_$procdff$18"/>
    <g transform="translate(0,10)" s:x="0" s:y="10" s:pid="in0" id="port_$procdff$18~ARST">
      <text x="-3" y="-4" class="inputPortLabel cell_$procdff$18">ARST</text>
    </g>
    <g transform="translate(0,30)" s:x="0" s:y="10" s:pid="in0" id="port_$procdff$18~CLK">
      <text x="-3" y="-4" class="inputPortLabel cell_$procdff$18">CLK</text>
    </g>
    <g transform="translate(0,50)" s:x="0" s:y="10" s:pid="in0" id="port_$procdff$18~D">
      <text x="-3" y="-4" class="inputPortLabel cell_$procdff$18">D</text>
    </g>
    <g transform="translate(30,10)" s:x="30" s:y="10" s:pid="out0" id="port_$procdff$18~Q">
      <text x="5" y="-4" style="fill:#000; stroke:none" class="cell_$procdff$18">Q</text>
    </g>
  </g>
  <g s:type="generic" transform="translate(388,115)" s:width="30" s:height="40" id="cell_$procdff$19">
    <text x="15" y="-4" class="nodelabel cell_$procdff$19" s:attribute="ref">$adff</text>
    <rect width="30" height="60" s:generic="body" class="cell_$procdff$19"/>
    <g transform="translate(0,10)" s:x="0" s:y="10" s:pid="in0" id="port_$procdff$19~ARST">
      <text x="-3" y="-4" class="inputPortLabel cell_$procdff$19">ARST</text>
    </g>
    <g transform="translate(0,30)" s:x="0" s:y="10" s:pid="in0" id="port_$procdff$19~CLK">
      <text x="-3" y="-4" class="inputPortLabel cell_$procdff$19">CLK</text>
    </g>
    <g transform="translate(0,50)" s:x="0" s:y="10" s:pid="in0" id="port_$procdff$19~D">
      <text x="-3" y="-4" class="inputPortLabel cell_$procdff$19">D</text>
    </g>
    <g transform="translate(30,10)" s:x="30" s:y="10" s:pid="out0" id="port_$procdff$19~Q">
      <text x="5" y="-4" style="fill:#000; stroke:none" class="cell_$procdff$19">Q</text>
    </g>
  </g>
  <g s:type="generic" transform="translate(388,288.5)" s:width="30" s:height="40" id="cell_$procdff$20">
    <text x="15" y="-4" class="nodelabel cell_$procdff$20" s:attribute="ref">$adff</text>
    <rect width="30" height="60" s:generic="body" class="cell_$procdff$20"/>
    <g transform="translate(0,10)" s:x="0" s:y="10" s:pid="in0" id="port_$procdff$20~ARST">
      <text x="-3" y="-4" class="inputPortLabel cell_$procdff$20">ARST</text>
    </g>
    <g transform="translate(0,30)" s:x="0" s:y="10" s:pid="in0" id="port_$procdff$20~CLK">
      <text x="-3" y="-4" class="inputPortLabel cell_$procdff$20">CLK</text>
    </g>
    <g transform="translate(0,50)" s:x="0" s:y="10" s:pid="in0" id="port_$procdff$20~D">
      <text x="-3" y="-4" class="inputPortLabel cell_$procdff$20">D</text>
    </g>
    <g transform="translate(30,10)" s:x="30" s:y="10" s:pid="out0" id="port_$procdff$20~Q">
      <text x="5" y="-4" style="fill:#000; stroke:none" class="cell_$procdff$20">Q</text>
    </g>
  </g>
  <g s:type="mux" transform="translate(552.3333333333334,199)" s:width="20" s:height="40" id="cell_$procmux$12">
    <s:alias val="$pmux"/>
    <s:alias val="$mux"/>
    <s:alias val="$_MUX_"/>
    <path d="M0,0 L20,10 L20,30 L0,40 Z" class="cell_$procmux$12"/>
    <g s:x="0" s:y="10" s:pid="A"/>
    <g s:x="0" s:y="30" s:pid="B"/>
    <g s:x="10" s:y="35" s:pid="S"/>
    <g s:x="20" s:y="20" s:pid="Y"/>
  </g>
  <g s:type="mux" transform="translate(740,73)" s:width="20" s:height="40" id="cell_$procmux$15">
    <s:alias val="$pmux"/>
    <s:alias val="$mux"/>
    <s:alias val="$_MUX_"/>
    <path d="M0,0 L20,10 L20,30 L0,40 Z" class="cell_$procmux$15"/>
    <g s:x="0" s:y="10" s:pid="A"/>
    <g s:x="0" s:y="30" s:pid="B"/>
    <g s:x="10" s:y="35" s:pid="S"/>
    <g s:x="20" s:y="20" s:pid="Y"/>
  </g>
  <g s:type="inputExt" transform="translate(125,263.5)" s:width="30" s:height="20" id="cell_clk">
    <text x="15" y="-4" class="nodelabel cell_clk" s:attribute="ref">clk</text>
    <s:alias val="$_inputExt_"/>
    <path d="M0,0 L0,20 L15,20 L30,10 L15,0 Z" class="cell_clk"/>
    <g s:x="28" s:y="10" s:pid="Y"/>
  </g>
  <g s:type="inputExt" transform="translate(125,178)" s:width="30" s:height="20" id="cell_rst">
    <text x="15" y="-4" class="nodelabel cell_rst" s:attribute="ref">rst</text>
    <s:alias val="$_inputExt_"/>
    <path d="M0,0 L0,20 L15,20 L30,10 L15,0 Z" class="cell_rst"/>
    <g s:x="28" s:y="10" s:pid="Y"/>
  </g>
  <g s:type="inputExt" transform="translate(12,284)" s:width="30" s:height="20" id="cell_sw">
    <text x="15" y="-4" class="nodelabel cell_sw" s:attribute="ref">sw</text>
    <s:alias val="$_inputExt_"/>
    <path d="M0,0 L0,20 L15,20 L30,10 L15,0 Z" class="cell_sw"/>
    <g s:x="28" s:y="10" s:pid="Y"/>
  </g>
  <g s:type="outputExt" transform="translate(740,331.5)" s:width="30" s:height="20" id="cell_pwm_out">
    <text x="15" y="-4" class="nodelabel cell_pwm_out" s:attribute="ref">pwm_out</text>
    <s:alias val="$_outputExt_"/>
    <path d="M30,0 L30,20 L15,20 L0,10 L15,0 Z" class="cell_pwm_out"/>
    <g s:x="0" s:y="10" s:pid="A"/>
  </g>
  <g s:type="constant" transform="translate(12,219)" s:width="30" s:height="20" id="cell_1">
    <text x="15" y="-4" class="nodelabel cell_1" s:attribute="ref">1</text>
    <s:alias val="$_constant_"/>
    <rect width="30" height="20" class="cell_1"/>
    <g s:x="30" s:y="10" s:pid="Y"/>
  </g>
  <g s:type="constant" transform="translate(12,349)" s:width="30" s:height="20" id="cell_0">
    <text x="15" y="-4" class="nodelabel cell_0" s:attribute="ref">0</text>
    <s:alias val="$_constant_"/>
    <rect width="30" height="20" class="cell_0"/>
    <g s:x="30" s:y="10" s:pid="Y"/>
  </g>
  <g s:type="constant" transform="translate(549,158)" s:width="30" s:height="20" id="cell_1001">
    <text x="15" y="-4" class="nodelabel cell_1001" s:attribute="ref">0x9</text>
    <s:alias val="$_constant_"/>
    <rect width="30" height="20" class="cell_1001"/>
    <g s:x="30" s:y="10" s:pid="Y"/>
  </g>
  <g s:type="constant" transform="translate(639,93)" s:width="30" s:height="20" id="cell_0000">
    <text x="15" y="-4" class="nodelabel cell_0000" s:attribute="ref">0x0</text>
    <s:alias val="$_constant_"/>
    <rect width="30" height="20" class="cell_0000"/>
    <g s:x="30" s:y="10" s:pid="Y"/>
  </g>
  <line x1="419" x2="464" y1="125.5" y2="125.5" class="net_8,9,10,11"/>
  <line x1="464" x2="464" y1="125.5" y2="28" class="net_8,9,10,11"/>
  <circle cx="464" cy="125.5" r="2" style="fill:#000" class="net_8,9,10,11"/>
  <line x1="464" x2="647.3333333333334" y1="28" y2="28" class="net_8,9,10,11"/>
  <line x1="419" x2="589" y1="125.5" y2="125.5" class="net_8,9,10,11"/>
  <line x1="589" x2="589" y1="125.5" y2="153" class="net_8,9,10,11"/>
  <line x1="589" x2="647.3333333333334" y1="153" y2="153" class="net_8,9,10,11"/>
  <line x1="419" x2="464" y1="125.5" y2="125.5" class="net_8,9,10,11"/>
  <line x1="464" x2="464" y1="125.5" y2="284" class="net_8,9,10,11"/>
  <line x1="464" x2="492" y1="284" y2="284" class="net_8,9,10,11"/>
  <line x1="42" x2="72" y1="229" y2="229" class="net_31"/>
  <line x1="72" x2="72" y1="229" y2="43" class="net_31"/>
  <circle cx="72" cy="229" r="2" style="fill:#000" class="net_31"/>
  <line x1="72" x2="647.3333333333334" y1="43" y2="43" class="net_31"/>
  <line x1="42" x2="72" y1="229" y2="229" class="net_31"/>
  <line x1="72" x2="72" y1="229" y2="399" class="net_31"/>
  <line x1="72" x2="125" y1="399" y2="399" class="net_31"/>
  <line x1="42" x2="552.3333333333334" y1="229" y2="229" class="net_31"/>
  <line x1="40" x2="62" y1="294" y2="294" class="net_4,5,6"/>
  <line x1="62" x2="62" y1="294" y2="339" class="net_4,5,6"/>
  <line x1="62" x2="125" y1="339" y2="339" class="net_4,5,6"/>
  <line x1="42" x2="125" y1="359" y2="359" class="net_32"/>
  <line x1="42" x2="52" y1="359" y2="359" class="net_32"/>
  <line x1="52" x2="52" y1="359" y2="419" class="net_32"/>
  <circle cx="52" cy="359" r="2" style="fill:#000" class="net_32"/>
  <line x1="52" x2="125" y1="419" y2="419" class="net_32"/>
  <line x1="42" x2="52" y1="359" y2="359" class="net_32"/>
  <line x1="52" x2="52" y1="359" y2="209" class="net_32"/>
  <line x1="52" x2="552.3333333333334" y1="209" y2="209" class="net_32"/>
  <line x1="52" x2="52" y1="499" y2="439" class="net_"/>
  <line x1="52" x2="125" y1="439" y2="439" class="net_"/>
  <line x1="52" x2="52" y1="499" y2="459" class="net_"/>
  <circle cx="52" cy="459" r="2" style="fill:#000" class="net_"/>
  <line x1="52" x2="125" y1="459" y2="459" class="net_"/>
  <line x1="52" x2="52" y1="499" y2="479" class="net_"/>
  <circle cx="52" cy="479" r="2" style="fill:#000" class="net_"/>
  <line x1="52" x2="125" y1="479" y2="479" class="net_"/>
  <line x1="52" x2="125" y1="499" y2="499" class="net_"/>
  <line x1="579" x2="647.3333333333334" y1="168" y2="168" class="net_35,36,37,38"/>
  <line x1="419" x2="492" y1="299" y2="299" class="net_21,22,23,24"/>
  <line x1="153" x2="599" y1="188" y2="188" class="net_3"/>
  <line x1="599" x2="599" y1="188" y2="341.5" class="net_3"/>
  <line x1="599" x2="639" y1="341.5" y2="341.5" class="net_3"/>
  <line x1="153" x2="353" y1="188" y2="188" class="net_3"/>
  <line x1="353" x2="353" y1="188" y2="125.5" class="net_3"/>
  <circle cx="353" cy="188" r="2" style="fill:#000" class="net_3"/>
  <line x1="353" x2="388" y1="125.5" y2="125.5" class="net_3"/>
  <line x1="153" x2="353" y1="188" y2="188" class="net_3"/>
  <line x1="353" x2="353" y1="188" y2="299" class="net_3"/>
  <line x1="353" x2="388" y1="299" y2="299" class="net_3"/>
  <line x1="153" x2="333" y1="273.5" y2="273.5" class="net_2"/>
  <line x1="333" x2="333" y1="273.5" y2="361.5" class="net_2"/>
  <circle cx="333" cy="273.5" r="2" style="fill:#000" class="net_2"/>
  <line x1="333" x2="639" y1="361.5" y2="361.5" class="net_2"/>
  <line x1="153" x2="333" y1="273.5" y2="273.5" class="net_2"/>
  <line x1="333" x2="333" y1="273.5" y2="145.5" class="net_2"/>
  <line x1="333" x2="388" y1="145.5" y2="145.5" class="net_2"/>
  <line x1="153" x2="333" y1="273.5" y2="273.5" class="net_2"/>
  <line x1="333" x2="333" y1="273.5" y2="319" class="net_2"/>
  <circle cx="333" cy="319" r="2" style="fill:#000" class="net_2"/>
  <line x1="333" x2="388" y1="319" y2="319" class="net_2"/>
  <line x1="572.3333333333334" x2="589" y1="219" y2="219" class="net_26"/>
  <line x1="589" x2="589" y1="219" y2="381.5" class="net_26"/>
  <line x1="589" x2="639" y1="381.5" y2="381.5" class="net_26"/>
  <line x1="760" x2="792" y1="93" y2="93" class="net_27,28,29,30"/>
  <line x1="792" x2="792" y1="93" y2="12" class="net_27,28,29,30"/>
  <line x1="792" x2="343" y1="12" y2="12" class="net_27,28,29,30"/>
  <line x1="343" x2="343" y1="12" y2="165.5" class="net_27,28,29,30"/>
  <line x1="343" x2="388" y1="165.5" y2="165.5" class="net_27,28,29,30"/>
  <line x1="156" x2="388" y1="339" y2="339" class="net_16,17,18,19"/>
  <line x1="514" x2="562.3333333333334" y1="291.5" y2="291.5" class="net_25"/>
  <line x1="562.3333333333334" x2="562.3333333333334" y1="291.5" y2="234" class="net_25"/>
  <line x1="669.3333333333334" x2="715" y1="35.5" y2="35.5" class="net_12,13,14,15"/>
  <line x1="715" x2="715" y1="35.5" y2="83" class="net_12,13,14,15"/>
  <line x1="715" x2="740" y1="83" y2="83" class="net_12,13,14,15"/>
  <line x1="669" x2="740" y1="103" y2="103" class="net_41,42,43,44"/>
  <line x1="669.3333333333334" x2="750" y1="160.5" y2="160.5" class="net_20"/>
  <line x1="750" x2="750" y1="160.5" y2="108" class="net_20"/>
  <line x1="670" x2="740" y1="341.5" y2="341.5" class="net_7"/>
</svg>
