<?xml version="1.0" encoding="UTF-8" standalone="no"?>
<!DOCTYPE svg PUBLIC "-//W3C//DTD SVG 1.1//EN"
 "http://www.w3.org/Graphics/SVG/1.1/DTD/svg11.dtd">
<!-- Generated by graphviz version 2.43.0 (0)
 -->
<!-- Title: pwm Pages: 1 -->
<svg width="1637pt" height="783pt"
 viewBox="0.00 0.00 1636.58 782.50" xmlns="http://www.w3.org/2000/svg" xmlns:xlink="http://www.w3.org/1999/xlink">
<g id="graph0" class="graph" transform="scale(1 1) rotate(0) translate(4 778.5)">
<title>pwm</title>
<polygon fill="white" stroke="transparent" points="-4,4 -4,-778.5 1632.58,-778.5 1632.58,4 -4,4"/>
<text text-anchor="middle" x="814.29" y="-7.8" font-family="Times,serif" font-size="14.00">pwm</text>
<!-- n13 -->
<g id="node1" class="node">
<title>n13</title>
<polygon fill="none" stroke="black" points="581.99,-343.04 581.99,-357.96 566.18,-368.5 543.81,-368.5 527.99,-357.96 527.99,-343.04 543.81,-332.5 566.18,-332.5 581.99,-343.04"/>
<text text-anchor="middle" x="554.99" y="-346.8" font-family="Times,serif" font-size="14.00">clk</text>
</g>
<!-- c23 -->
<g id="node7" class="node">
<title>c23</title>
<polygon fill="none" stroke="black" points="645.49,-410 645.49,-479 814.49,-479 814.49,-410 645.49,-410"/>
<text text-anchor="middle" x="673.49" y="-463.8" font-family="Times,serif" font-size="14.00">ARST</text>
<polyline fill="none" stroke="black" points="645.49,-456 701.49,-456 "/>
<text text-anchor="middle" x="673.49" y="-440.8" font-family="Times,serif" font-size="14.00">CLK</text>
<polyline fill="none" stroke="black" points="645.49,-433 701.49,-433 "/>
<text text-anchor="middle" x="673.49" y="-417.8" font-family="Times,serif" font-size="14.00">D</text>
<polyline fill="none" stroke="black" points="701.49,-410 701.49,-479 "/>
<text text-anchor="middle" x="743.99" y="-448.3" font-family="Times,serif" font-size="14.00">$rdreg[0]</text>
<text text-anchor="middle" x="743.99" y="-433.3" font-family="Times,serif" font-size="14.00">$adff</text>
<polyline fill="none" stroke="black" points="786.49,-410 786.49,-479 "/>
<text text-anchor="middle" x="800.49" y="-440.8" font-family="Times,serif" font-size="14.00">Q</text>
</g>
<!-- n13&#45;&gt;c23 -->
<g id="edge13" class="edge">
<title>n13:e&#45;&gt;c23:w</title>
<path fill="none" stroke="black" d="M582.99,-350.5C629.24,-350.5 600.7,-430.39 635.26,-442.87"/>
<polygon fill="black" stroke="black" points="635.07,-446.38 645.49,-444.5 636.17,-439.47 635.07,-446.38"/>
</g>
<!-- c38 -->
<g id="node35" class="node">
<title>c38</title>
<polygon fill="none" stroke="black" points="1341.62,-482 1341.62,-551 1478.62,-551 1478.62,-482 1341.62,-482"/>
<text text-anchor="middle" x="1369.62" y="-535.8" font-family="Times,serif" font-size="14.00">ARST</text>
<polyline fill="none" stroke="black" points="1341.62,-528 1397.62,-528 "/>
<text text-anchor="middle" x="1369.62" y="-512.8" font-family="Times,serif" font-size="14.00">CLK</text>
<polyline fill="none" stroke="black" points="1341.62,-505 1397.62,-505 "/>
<text text-anchor="middle" x="1369.62" y="-489.8" font-family="Times,serif" font-size="14.00">D</text>
<polyline fill="none" stroke="black" points="1397.62,-482 1397.62,-551 "/>
<text text-anchor="middle" x="1424.12" y="-520.3" font-family="Times,serif" font-size="14.00">$18</text>
<text text-anchor="middle" x="1424.12" y="-505.3" font-family="Times,serif" font-size="14.00">$adff</text>
<polyline fill="none" stroke="black" points="1450.62,-482 1450.62,-551 "/>
<text text-anchor="middle" x="1464.62" y="-512.8" font-family="Times,serif" font-size="14.00">Q</text>
</g>
<!-- n13&#45;&gt;c38 -->
<g id="edge14" class="edge">
<title>n13:e&#45;&gt;c38:w</title>
<path fill="none" stroke="black" d="M582.99,-350.5C611.28,-350.5 617.44,-358.9 645.49,-362.5 772.97,-378.87 805.53,-381.5 934.05,-381.5 934.05,-381.5 934.05,-381.5 1109.12,-381.5 1201.53,-381.5 1235.26,-389.58 1305.62,-449.5 1328.24,-468.76 1312.79,-505.92 1331.67,-514.64"/>
<polygon fill="black" stroke="black" points="1331.14,-518.1 1341.62,-516.5 1332.43,-511.22 1331.14,-518.1"/>
</g>
<!-- c39 -->
<g id="node36" class="node">
<title>c39</title>
<polygon fill="none" stroke="black" points="661.49,-284 661.49,-353 798.49,-353 798.49,-284 661.49,-284"/>
<text text-anchor="middle" x="689.49" y="-337.8" font-family="Times,serif" font-size="14.00">ARST</text>
<polyline fill="none" stroke="black" points="661.49,-330 717.49,-330 "/>
<text text-anchor="middle" x="689.49" y="-314.8" font-family="Times,serif" font-size="14.00">CLK</text>
<polyline fill="none" stroke="black" points="661.49,-307 717.49,-307 "/>
<text text-anchor="middle" x="689.49" y="-291.8" font-family="Times,serif" font-size="14.00">D</text>
<polyline fill="none" stroke="black" points="717.49,-284 717.49,-353 "/>
<text text-anchor="middle" x="743.99" y="-322.3" font-family="Times,serif" font-size="14.00">$19</text>
<text text-anchor="middle" x="743.99" y="-307.3" font-family="Times,serif" font-size="14.00">$adff</text>
<polyline fill="none" stroke="black" points="770.49,-284 770.49,-353 "/>
<text text-anchor="middle" x="784.49" y="-314.8" font-family="Times,serif" font-size="14.00">Q</text>
</g>
<!-- n13&#45;&gt;c39 -->
<g id="edge15" class="edge">
<title>n13:e&#45;&gt;c39:w</title>
<path fill="none" stroke="black" d="M582.99,-350.5C616.29,-350.5 622,-324.67 649.69,-319.42"/>
<polygon fill="black" stroke="black" points="650.34,-322.88 659.99,-318.5 649.72,-315.91 650.34,-322.88"/>
</g>
<!-- n14 -->
<g id="node2" class="node">
<title>n14</title>
<polygon fill="none" stroke="black" points="935.05,-353.5 870.03,-335.5 935.05,-317.5 1000.08,-335.5 935.05,-353.5"/>
<text text-anchor="middle" x="935.05" y="-331.8" font-family="Times,serif" font-size="14.00">counter</text>
</g>
<!-- c27 -->
<g id="node9" class="node">
<title>c27</title>
<polygon fill="none" stroke="black" points="1055.62,-270.5 1055.62,-316.5 1160.62,-316.5 1160.62,-270.5 1055.62,-270.5"/>
<text text-anchor="middle" x="1069.12" y="-301.3" font-family="Times,serif" font-size="14.00">A</text>
<polyline fill="none" stroke="black" points="1055.62,-293.5 1082.62,-293.5 "/>
<text text-anchor="middle" x="1069.12" y="-278.3" font-family="Times,serif" font-size="14.00">B</text>
<polyline fill="none" stroke="black" points="1082.62,-270.5 1082.62,-316.5 "/>
<text text-anchor="middle" x="1108.62" y="-297.3" font-family="Times,serif" font-size="14.00">$4</text>
<text text-anchor="middle" x="1108.62" y="-282.3" font-family="Times,serif" font-size="14.00">$add</text>
<polyline fill="none" stroke="black" points="1134.62,-270.5 1134.62,-316.5 "/>
<text text-anchor="middle" x="1147.62" y="-289.8" font-family="Times,serif" font-size="14.00">Y</text>
</g>
<!-- n14&#45;&gt;c27 -->
<g id="edge17" class="edge">
<title>n14:e&#45;&gt;c27:w</title>
<path fill="none" stroke="black" stroke-width="3" d="M1001.05,-335.5C1024.84,-335.5 1027.6,-313.34 1045.47,-307.11"/>
<polygon fill="black" stroke="black" stroke-width="3" points="1046.29,-310.53 1055.62,-305.5 1045.19,-303.61 1046.29,-310.53"/>
</g>
<!-- c28 -->
<g id="node11" class="node">
<title>c28</title>
<polygon fill="none" stroke="black" points="1060.12,-140.5 1060.12,-186.5 1156.12,-186.5 1156.12,-140.5 1060.12,-140.5"/>
<text text-anchor="middle" x="1073.62" y="-171.3" font-family="Times,serif" font-size="14.00">A</text>
<polyline fill="none" stroke="black" points="1060.12,-163.5 1087.12,-163.5 "/>
<text text-anchor="middle" x="1073.62" y="-148.3" font-family="Times,serif" font-size="14.00">B</text>
<polyline fill="none" stroke="black" points="1087.12,-140.5 1087.12,-186.5 "/>
<text text-anchor="middle" x="1108.62" y="-167.3" font-family="Times,serif" font-size="14.00">$3</text>
<text text-anchor="middle" x="1108.62" y="-152.3" font-family="Times,serif" font-size="14.00">$eq</text>
<polyline fill="none" stroke="black" points="1130.12,-140.5 1130.12,-186.5 "/>
<text text-anchor="middle" x="1143.12" y="-159.8" font-family="Times,serif" font-size="14.00">Y</text>
</g>
<!-- n14&#45;&gt;c28 -->
<g id="edge18" class="edge">
<title>n14:e&#45;&gt;c28:w</title>
<path fill="none" stroke="black" stroke-width="3" d="M1001.05,-335.5C1072.86,-335.5 992.5,-191.34 1048.86,-176.7"/>
<polygon fill="black" stroke="black" stroke-width="3" points="1049.59,-180.13 1059.12,-175.5 1048.78,-173.18 1049.59,-180.13"/>
</g>
<!-- c29 -->
<g id="node12" class="node">
<title>c29</title>
<polygon fill="none" stroke="black" points="1063.62,-410.5 1063.62,-456.5 1152.62,-456.5 1152.62,-410.5 1063.62,-410.5"/>
<text text-anchor="middle" x="1077.12" y="-441.3" font-family="Times,serif" font-size="14.00">A</text>
<polyline fill="none" stroke="black" points="1063.62,-433.5 1090.62,-433.5 "/>
<text text-anchor="middle" x="1077.12" y="-418.3" font-family="Times,serif" font-size="14.00">B</text>
<polyline fill="none" stroke="black" points="1090.62,-410.5 1090.62,-456.5 "/>
<text text-anchor="middle" x="1108.62" y="-437.3" font-family="Times,serif" font-size="14.00">$6</text>
<text text-anchor="middle" x="1108.62" y="-422.3" font-family="Times,serif" font-size="14.00">$lt</text>
<polyline fill="none" stroke="black" points="1126.62,-410.5 1126.62,-456.5 "/>
<text text-anchor="middle" x="1139.62" y="-429.8" font-family="Times,serif" font-size="14.00">Y</text>
</g>
<!-- n14&#45;&gt;c29 -->
<g id="edge19" class="edge">
<title>n14:e&#45;&gt;c29:w</title>
<path fill="none" stroke="black" stroke-width="3" d="M1001.05,-335.5C1053.04,-335.5 1012.81,-430.58 1051.83,-443.95"/>
<polygon fill="black" stroke="black" stroke-width="3" points="1051.71,-447.47 1062.12,-445.5 1052.75,-440.54 1051.71,-447.47"/>
</g>
<!-- n15 -->
<g id="node3" class="node">
<title>n15</title>
<polygon fill="none" stroke="black" points="935.05,-454.5 850.43,-436.5 935.05,-418.5 1019.68,-436.5 935.05,-454.5"/>
<text text-anchor="middle" x="935.05" y="-432.8" font-family="Times,serif" font-size="14.00">duty_cycle</text>
</g>
<!-- n15&#45;&gt;c29 -->
<g id="edge21" class="edge">
<title>n15:e&#45;&gt;c29:w</title>
<path fill="none" stroke="black" stroke-width="3" d="M1019.62,-436.5C1035.74,-436.5 1040.46,-426.79 1052.13,-422.99"/>
<polygon fill="black" stroke="black" stroke-width="3" points="1052.74,-426.44 1062.12,-421.5 1051.71,-419.52 1052.74,-426.44"/>
</g>
<!-- n16 -->
<g id="node4" class="node">
<title>n16</title>
<polygon fill="none" stroke="black" points="1628.57,-509.04 1628.57,-523.96 1595.2,-534.5 1548,-534.5 1514.63,-523.96 1514.63,-509.04 1548,-498.5 1595.2,-498.5 1628.57,-509.04"/>
<text text-anchor="middle" x="1571.6" y="-512.8" font-family="Times,serif" font-size="14.00">pwm_out</text>
</g>
<!-- n17 -->
<g id="node5" class="node">
<title>n17</title>
<polygon fill="none" stroke="black" points="581.99,-485.04 581.99,-499.96 566.18,-510.5 543.81,-510.5 527.99,-499.96 527.99,-485.04 543.81,-474.5 566.18,-474.5 581.99,-485.04"/>
<text text-anchor="middle" x="554.99" y="-488.8" font-family="Times,serif" font-size="14.00">rst</text>
</g>
<!-- n17&#45;&gt;c23 -->
<g id="edge23" class="edge">
<title>n17:e&#45;&gt;c23:w</title>
<path fill="none" stroke="black" d="M582.99,-492.5C609.17,-492.5 614.48,-473.36 635.44,-468.57"/>
<polygon fill="black" stroke="black" points="635.92,-472.04 645.49,-467.5 635.18,-465.08 635.92,-472.04"/>
</g>
<!-- n17&#45;&gt;c38 -->
<g id="edge24" class="edge">
<title>n17:e&#45;&gt;c38:w</title>
<path fill="none" stroke="black" d="M582.99,-492.5C745.35,-492.5 771.7,-593.5 934.05,-593.5 934.05,-593.5 934.05,-593.5 1109.12,-593.5 1211.68,-593.5 1234.09,-543.03 1331.33,-539.67"/>
<polygon fill="black" stroke="black" points="1331.68,-543.17 1341.62,-539.5 1331.56,-536.17 1331.68,-543.17"/>
</g>
<!-- n17&#45;&gt;c39 -->
<g id="edge25" class="edge">
<title>n17:e&#45;&gt;c39:w</title>
<path fill="none" stroke="black" d="M582.99,-492.5C654.65,-492.5 591.5,-355.89 649.99,-342.54"/>
<polygon fill="black" stroke="black" points="650.41,-346.02 659.99,-341.5 649.68,-339.06 650.41,-346.02"/>
</g>
<!-- n18 -->
<g id="node6" class="node">
<title>n18</title>
<polygon fill="none" stroke="black" points="54,-391.04 54,-405.96 38.18,-416.5 15.82,-416.5 0,-405.96 0,-391.04 15.82,-380.5 38.18,-380.5 54,-391.04"/>
<text text-anchor="middle" x="27" y="-394.8" font-family="Times,serif" font-size="14.00">sw</text>
</g>
<!-- x2 -->
<g id="node14" class="node">
<title>x2</title>
<path fill="none" stroke="black" d="M384.49,-380.5C384.49,-380.5 435.49,-380.5 435.49,-380.5 441.49,-380.5 447.49,-386.5 447.49,-392.5 447.49,-392.5 447.49,-404.5 447.49,-404.5 447.49,-410.5 441.49,-416.5 435.49,-416.5 435.49,-416.5 384.49,-416.5 384.49,-416.5 378.49,-416.5 372.49,-410.5 372.49,-404.5 372.49,-404.5 372.49,-392.5 372.49,-392.5 372.49,-386.5 378.49,-380.5 384.49,-380.5"/>
<text text-anchor="middle" x="409.99" y="-394.8" font-family="Times,serif" font-size="14.00">2:2 &#45; 0:0</text>
</g>
<!-- n18&#45;&gt;x2 -->
<g id="edge29" class="edge">
<title>n18:e&#45;&gt;x2:w</title>
<path fill="none" stroke="black" d="M54,-398.5C191.45,-398.5 228.32,-398.5 360.86,-398.5"/>
<polygon fill="black" stroke="black" points="360.99,-402 370.99,-398.5 360.99,-395 360.99,-402"/>
</g>
<!-- x3 -->
<g id="node16" class="node">
<title>x3</title>
<path fill="none" stroke="black" d="M239.49,-574.5C239.49,-574.5 290.49,-574.5 290.49,-574.5 296.49,-574.5 302.49,-580.5 302.49,-586.5 302.49,-586.5 302.49,-598.5 302.49,-598.5 302.49,-604.5 296.49,-610.5 290.49,-610.5 290.49,-610.5 239.49,-610.5 239.49,-610.5 233.49,-610.5 227.49,-604.5 227.49,-598.5 227.49,-598.5 227.49,-586.5 227.49,-586.5 227.49,-580.5 233.49,-574.5 239.49,-574.5"/>
<text text-anchor="middle" x="264.99" y="-588.8" font-family="Times,serif" font-size="14.00">1:1 &#45; 0:0</text>
</g>
<!-- n18&#45;&gt;x3 -->
<g id="edge30" class="edge">
<title>n18:e&#45;&gt;x3:w</title>
<path fill="none" stroke="black" d="M54,-398.5C136.89,-398.5 28.16,-526.31 90,-581.5 132.68,-619.59 161.89,-595.6 215.97,-592.76"/>
<polygon fill="black" stroke="black" points="216.09,-596.26 225.99,-592.5 215.9,-589.27 216.09,-596.26"/>
</g>
<!-- x4 -->
<g id="node18" class="node">
<title>x4</title>
<path fill="none" stroke="black" d="M239.49,-187.5C239.49,-187.5 290.49,-187.5 290.49,-187.5 296.49,-187.5 302.49,-193.5 302.49,-199.5 302.49,-199.5 302.49,-211.5 302.49,-211.5 302.49,-217.5 296.49,-223.5 290.49,-223.5 290.49,-223.5 239.49,-223.5 239.49,-223.5 233.49,-223.5 227.49,-217.5 227.49,-211.5 227.49,-211.5 227.49,-199.5 227.49,-199.5 227.49,-193.5 233.49,-187.5 239.49,-187.5"/>
<text text-anchor="middle" x="264.99" y="-201.8" font-family="Times,serif" font-size="14.00">1:1 &#45; 0:0</text>
</g>
<!-- n18&#45;&gt;x4 -->
<g id="edge31" class="edge">
<title>n18:e&#45;&gt;x4:w</title>
<path fill="none" stroke="black" d="M54,-398.5C136.46,-398.5 28.45,-271.37 90,-216.5 132.7,-178.43 161.9,-202.4 215.97,-205.24"/>
<polygon fill="black" stroke="black" points="215.9,-208.73 225.99,-205.5 216.09,-201.74 215.9,-208.73"/>
</g>
<!-- x7 -->
<g id="node22" class="node">
<title>x7</title>
<path fill="none" stroke="black" d="M106.75,-629.5C106.75,-629.5 157.75,-629.5 157.75,-629.5 163.75,-629.5 169.75,-635.5 169.75,-641.5 169.75,-641.5 169.75,-653.5 169.75,-653.5 169.75,-659.5 163.75,-665.5 157.75,-665.5 157.75,-665.5 106.75,-665.5 106.75,-665.5 100.75,-665.5 94.75,-659.5 94.75,-653.5 94.75,-653.5 94.75,-641.5 94.75,-641.5 94.75,-635.5 100.75,-629.5 106.75,-629.5"/>
<text text-anchor="middle" x="132.25" y="-643.8" font-family="Times,serif" font-size="14.00">0:0 &#45; 0:0</text>
</g>
<!-- n18&#45;&gt;x7 -->
<g id="edge32" class="edge">
<title>n18:e&#45;&gt;x7:w</title>
<path fill="none" stroke="black" d="M54,-398.5C106.3,-398.5 46.33,-615.53 83.72,-644.35"/>
<polygon fill="black" stroke="black" points="82.65,-647.69 93.25,-647.5 84.85,-641.04 82.65,-647.69"/>
</g>
<!-- x10 -->
<g id="node26" class="node">
<title>x10</title>
<path fill="none" stroke="black" d="M106.75,-427.5C106.75,-427.5 157.75,-427.5 157.75,-427.5 163.75,-427.5 169.75,-433.5 169.75,-439.5 169.75,-439.5 169.75,-451.5 169.75,-451.5 169.75,-457.5 163.75,-463.5 157.75,-463.5 157.75,-463.5 106.75,-463.5 106.75,-463.5 100.75,-463.5 94.75,-457.5 94.75,-451.5 94.75,-451.5 94.75,-439.5 94.75,-439.5 94.75,-433.5 100.75,-427.5 106.75,-427.5"/>
<text text-anchor="middle" x="132.25" y="-441.8" font-family="Times,serif" font-size="14.00">0:0 &#45; 0:0</text>
</g>
<!-- n18&#45;&gt;x10 -->
<g id="edge26" class="edge">
<title>n18:e&#45;&gt;x10:w</title>
<path fill="none" stroke="black" d="M54,-398.5C76.96,-398.5 69.74,-431.96 83.27,-442.42"/>
<polygon fill="black" stroke="black" points="82.66,-445.89 93.25,-445.5 84.73,-439.2 82.66,-445.89"/>
</g>
<!-- x13 -->
<g id="node30" class="node">
<title>x13</title>
<path fill="none" stroke="black" d="M106.75,-225.5C106.75,-225.5 157.75,-225.5 157.75,-225.5 163.75,-225.5 169.75,-231.5 169.75,-237.5 169.75,-237.5 169.75,-249.5 169.75,-249.5 169.75,-255.5 163.75,-261.5 157.75,-261.5 157.75,-261.5 106.75,-261.5 106.75,-261.5 100.75,-261.5 94.75,-255.5 94.75,-249.5 94.75,-249.5 94.75,-237.5 94.75,-237.5 94.75,-231.5 100.75,-225.5 106.75,-225.5"/>
<text text-anchor="middle" x="132.25" y="-239.8" font-family="Times,serif" font-size="14.00">0:0 &#45; 0:0</text>
</g>
<!-- n18&#45;&gt;x13 -->
<g id="edge27" class="edge">
<title>n18:e&#45;&gt;x13:w</title>
<path fill="none" stroke="black" d="M54,-398.5C121.18,-398.5 32.92,-259.99 83.09,-244.84"/>
<polygon fill="black" stroke="black" points="83.79,-248.28 93.25,-243.5 82.87,-241.34 83.79,-248.28"/>
</g>
<!-- x16 -->
<g id="node34" class="node">
<title>x16</title>
<path fill="none" stroke="black" d="M106.75,-23.5C106.75,-23.5 157.75,-23.5 157.75,-23.5 163.75,-23.5 169.75,-29.5 169.75,-35.5 169.75,-35.5 169.75,-47.5 169.75,-47.5 169.75,-53.5 163.75,-59.5 157.75,-59.5 157.75,-59.5 106.75,-59.5 106.75,-59.5 100.75,-59.5 94.75,-53.5 94.75,-47.5 94.75,-47.5 94.75,-35.5 94.75,-35.5 94.75,-29.5 100.75,-23.5 106.75,-23.5"/>
<text text-anchor="middle" x="132.25" y="-37.8" font-family="Times,serif" font-size="14.00">0:0 &#45; 0:0</text>
</g>
<!-- n18&#45;&gt;x16 -->
<g id="edge28" class="edge">
<title>n18:e&#45;&gt;x16:w</title>
<path fill="none" stroke="black" d="M54,-398.5C130.07,-398.5 24.28,-74.18 83.3,-43.78"/>
<polygon fill="black" stroke="black" points="84.28,-47.15 93.25,-41.5 82.72,-40.32 84.28,-47.15"/>
</g>
<!-- c23&#45;&gt;n15 -->
<g id="edge20" class="edge">
<title>c23:e&#45;&gt;n15:w</title>
<path fill="none" stroke="black" stroke-width="3" d="M814.49,-444.5C826.91,-444.5 831.77,-439.91 840.53,-437.68"/>
<polygon fill="black" stroke="black" stroke-width="3" points="840.97,-441.15 850.49,-436.5 840.15,-434.2 840.97,-441.15"/>
</g>
<!-- v0 -->
<g id="node8" class="node">
<title>v0</title>
<ellipse fill="none" stroke="black" cx="935.05" cy="-281.5" rx="27" ry="18"/>
<text text-anchor="middle" x="935.05" y="-277.8" font-family="Times,serif" font-size="14.00">1</text>
</g>
<!-- v0&#45;&gt;c27 -->
<g id="edge41" class="edge">
<title>v0:e&#45;&gt;c27:w</title>
<path fill="none" stroke="black" stroke-width="3" d="M963.05,-281.5C1000.5,-281.5 1012.38,-281.5 1045.23,-281.5"/>
<polygon fill="black" stroke="black" stroke-width="3" points="1045.62,-285 1055.62,-281.5 1045.62,-278 1045.62,-285"/>
</g>
<!-- x19 -->
<g id="node42" class="node">
<title>x19</title>
<path fill="none" stroke="black" d="M1225.62,-270.5C1225.62,-270.5 1276.62,-270.5 1276.62,-270.5 1282.62,-270.5 1288.62,-276.5 1288.62,-282.5 1288.62,-282.5 1288.62,-294.5 1288.62,-294.5 1288.62,-300.5 1282.62,-306.5 1276.62,-306.5 1276.62,-306.5 1225.62,-306.5 1225.62,-306.5 1219.62,-306.5 1213.62,-300.5 1213.62,-294.5 1213.62,-294.5 1213.62,-282.5 1213.62,-282.5 1213.62,-276.5 1219.62,-270.5 1225.62,-270.5"/>
<text text-anchor="middle" x="1251.12" y="-284.8" font-family="Times,serif" font-size="14.00">3:0 &#45; 3:0</text>
</g>
<!-- c27&#45;&gt;x19 -->
<g id="edge35" class="edge">
<title>c27:e&#45;&gt;x19:w</title>
<path fill="none" stroke="black" stroke-width="3" d="M1160.62,-293.5C1179.84,-293.5 1186.84,-290.01 1202.06,-288.86"/>
<polygon fill="black" stroke="black" stroke-width="3" points="1202.25,-292.36 1212.12,-288.5 1202,-285.36 1202.25,-292.36"/>
</g>
<!-- v1 -->
<g id="node10" class="node">
<title>v1</title>
<ellipse fill="none" stroke="black" cx="935.05" cy="-151.5" rx="42.49" ry="18"/>
<text text-anchor="middle" x="935.05" y="-147.8" font-family="Times,serif" font-size="14.00">4&#39;1001</text>
</g>
<!-- v1&#45;&gt;c28 -->
<g id="edge42" class="edge">
<title>v1:e&#45;&gt;c28:w</title>
<path fill="none" stroke="black" stroke-width="3" d="M979.05,-151.5C1011.02,-151.5 1021.45,-151.5 1049.05,-151.5"/>
<polygon fill="black" stroke="black" stroke-width="3" points="1049.12,-155 1059.12,-151.5 1049.12,-148 1049.12,-155"/>
</g>
<!-- c41 -->
<g id="node41" class="node">
<title>c41</title>
<polygon fill="none" stroke="black" points="1355.62,-178 1355.62,-247 1464.62,-247 1464.62,-178 1355.62,-178"/>
<text text-anchor="middle" x="1369.12" y="-231.8" font-family="Times,serif" font-size="14.00">A</text>
<polyline fill="none" stroke="black" points="1355.62,-224 1382.62,-224 "/>
<text text-anchor="middle" x="1369.12" y="-208.8" font-family="Times,serif" font-size="14.00">B</text>
<polyline fill="none" stroke="black" points="1355.62,-201 1382.62,-201 "/>
<text text-anchor="middle" x="1369.12" y="-185.8" font-family="Times,serif" font-size="14.00">S</text>
<polyline fill="none" stroke="black" points="1382.62,-178 1382.62,-247 "/>
<text text-anchor="middle" x="1410.62" y="-216.3" font-family="Times,serif" font-size="14.00">$15</text>
<text text-anchor="middle" x="1410.62" y="-201.3" font-family="Times,serif" font-size="14.00">$mux</text>
<polyline fill="none" stroke="black" points="1438.62,-178 1438.62,-247 "/>
<text text-anchor="middle" x="1451.62" y="-208.8" font-family="Times,serif" font-size="14.00">Y</text>
</g>
<!-- c28&#45;&gt;c41 -->
<g id="edge36" class="edge">
<title>c28:e&#45;&gt;c41:w</title>
<path fill="none" stroke="black" d="M1157.12,-163.5C1223.12,-163.5 1241.73,-145.92 1305.62,-162.5 1325.77,-167.73 1328.88,-183.36 1344.18,-188.11"/>
<polygon fill="black" stroke="black" points="1343.73,-191.58 1354.12,-189.5 1344.7,-184.65 1343.73,-191.58"/>
</g>
<!-- c40 -->
<g id="node39" class="node">
<title>c40</title>
<polygon fill="none" stroke="black" points="1196.62,-459 1196.62,-528 1305.62,-528 1305.62,-459 1196.62,-459"/>
<text text-anchor="middle" x="1210.12" y="-512.8" font-family="Times,serif" font-size="14.00">A</text>
<polyline fill="none" stroke="black" points="1196.62,-505 1223.62,-505 "/>
<text text-anchor="middle" x="1210.12" y="-489.8" font-family="Times,serif" font-size="14.00">B</text>
<polyline fill="none" stroke="black" points="1196.62,-482 1223.62,-482 "/>
<text text-anchor="middle" x="1210.12" y="-466.8" font-family="Times,serif" font-size="14.00">S</text>
<polyline fill="none" stroke="black" points="1223.62,-459 1223.62,-528 "/>
<text text-anchor="middle" x="1251.62" y="-497.3" font-family="Times,serif" font-size="14.00">$12</text>
<text text-anchor="middle" x="1251.62" y="-482.3" font-family="Times,serif" font-size="14.00">$mux</text>
<polyline fill="none" stroke="black" points="1279.62,-459 1279.62,-528 "/>
<text text-anchor="middle" x="1292.62" y="-489.8" font-family="Times,serif" font-size="14.00">Y</text>
</g>
<!-- c29&#45;&gt;c40 -->
<g id="edge37" class="edge">
<title>c29:e&#45;&gt;c40:w</title>
<path fill="none" stroke="black" d="M1154.12,-433.5C1175.05,-433.5 1173.18,-459.36 1186.64,-467.84"/>
<polygon fill="black" stroke="black" points="1186.05,-471.31 1196.62,-470.5 1187.86,-464.54 1186.05,-471.31"/>
</g>
<!-- c31 -->
<g id="node13" class="node">
<title>c31</title>
<polygon fill="none" stroke="black" points="500.49,-387 500.49,-456 609.49,-456 609.49,-387 500.49,-387"/>
<text text-anchor="middle" x="513.99" y="-440.8" font-family="Times,serif" font-size="14.00">A</text>
<polyline fill="none" stroke="black" points="500.49,-433 527.49,-433 "/>
<text text-anchor="middle" x="513.99" y="-417.8" font-family="Times,serif" font-size="14.00">B</text>
<polyline fill="none" stroke="black" points="500.49,-410 527.49,-410 "/>
<text text-anchor="middle" x="513.99" y="-394.8" font-family="Times,serif" font-size="14.00">S</text>
<polyline fill="none" stroke="black" points="527.49,-387 527.49,-456 "/>
<text text-anchor="middle" x="555.49" y="-425.3" font-family="Times,serif" font-size="14.00">$26</text>
<text text-anchor="middle" x="555.49" y="-410.3" font-family="Times,serif" font-size="14.00">$mux</text>
<polyline fill="none" stroke="black" points="583.49,-387 583.49,-456 "/>
<text text-anchor="middle" x="596.49" y="-417.8" font-family="Times,serif" font-size="14.00">Y</text>
</g>
<!-- c31&#45;&gt;c23 -->
<g id="edge9" class="edge">
<title>c31:e&#45;&gt;c23:w</title>
<path fill="none" stroke="black" stroke-width="3" d="M609.49,-421.5C621.49,-421.5 626.74,-421.5 635.37,-421.5"/>
<polygon fill="black" stroke="black" stroke-width="3" points="635.49,-425 645.49,-421.5 635.49,-418 635.49,-425"/>
</g>
<!-- x2&#45;&gt;c31 -->
<g id="edge1" class="edge">
<title>x2:e&#45;&gt;c31:w</title>
<path fill="none" stroke="black" d="M461.1,-398.5C471.35,-398.5 478.04,-398.5 488.26,-398.5"/>
<polygon fill="none" stroke="black" points="460.99,-398.5 454.99,-402.5 448.99,-398.5 454.99,-394.5 460.99,-398.5"/>
<polygon fill="none" stroke="black" points="488.49,-398.5 494.49,-394.5 500.49,-398.5 494.49,-402.5 488.49,-398.5"/>
</g>
<!-- c32 -->
<g id="node15" class="node">
<title>c32</title>
<polygon fill="none" stroke="black" points="355.49,-533 355.49,-602 464.49,-602 464.49,-533 355.49,-533"/>
<text text-anchor="middle" x="368.99" y="-586.8" font-family="Times,serif" font-size="14.00">A</text>
<polyline fill="none" stroke="black" points="355.49,-579 382.49,-579 "/>
<text text-anchor="middle" x="368.99" y="-563.8" font-family="Times,serif" font-size="14.00">B</text>
<polyline fill="none" stroke="black" points="355.49,-556 382.49,-556 "/>
<text text-anchor="middle" x="368.99" y="-540.8" font-family="Times,serif" font-size="14.00">S</text>
<polyline fill="none" stroke="black" points="382.49,-533 382.49,-602 "/>
<text text-anchor="middle" x="410.49" y="-571.3" font-family="Times,serif" font-size="14.00">$29</text>
<text text-anchor="middle" x="410.49" y="-556.3" font-family="Times,serif" font-size="14.00">$mux</text>
<polyline fill="none" stroke="black" points="438.49,-533 438.49,-602 "/>
<text text-anchor="middle" x="451.49" y="-563.8" font-family="Times,serif" font-size="14.00">Y</text>
</g>
<!-- c32&#45;&gt;c31 -->
<g id="edge38" class="edge">
<title>c32:e&#45;&gt;c31:w</title>
<path fill="none" stroke="black" stroke-width="3" d="M464.49,-567.5C517.45,-567.5 453.82,-461.19 490.38,-446.24"/>
<polygon fill="black" stroke="black" stroke-width="3" points="491.23,-449.64 500.49,-444.5 490.04,-442.75 491.23,-449.64"/>
</g>
<!-- x3&#45;&gt;c32 -->
<g id="edge2" class="edge">
<title>x3:e&#45;&gt;c32:w</title>
<path fill="none" stroke="black" d="M315.88,-589.35C329.67,-580.67 329.77,-556.49 343.49,-547.72"/>
<polygon fill="none" stroke="black" points="315.59,-589.43 310.82,-594.83 303.99,-592.5 308.77,-587.1 315.59,-589.43"/>
<polygon fill="none" stroke="black" points="343.9,-547.61 348.66,-542.19 355.49,-544.5 350.74,-549.92 343.9,-547.61"/>
</g>
<!-- c33 -->
<g id="node17" class="node">
<title>c33</title>
<polygon fill="none" stroke="black" points="355.49,-214 355.49,-283 464.49,-283 464.49,-214 355.49,-214"/>
<text text-anchor="middle" x="368.99" y="-267.8" font-family="Times,serif" font-size="14.00">A</text>
<polyline fill="none" stroke="black" points="355.49,-260 382.49,-260 "/>
<text text-anchor="middle" x="368.99" y="-244.8" font-family="Times,serif" font-size="14.00">B</text>
<polyline fill="none" stroke="black" points="355.49,-237 382.49,-237 "/>
<text text-anchor="middle" x="368.99" y="-221.8" font-family="Times,serif" font-size="14.00">S</text>
<polyline fill="none" stroke="black" points="382.49,-214 382.49,-283 "/>
<text text-anchor="middle" x="410.49" y="-252.3" font-family="Times,serif" font-size="14.00">$32</text>
<text text-anchor="middle" x="410.49" y="-237.3" font-family="Times,serif" font-size="14.00">$mux</text>
<polyline fill="none" stroke="black" points="438.49,-214 438.49,-283 "/>
<text text-anchor="middle" x="451.49" y="-244.8" font-family="Times,serif" font-size="14.00">Y</text>
</g>
<!-- c33&#45;&gt;c31 -->
<g id="edge39" class="edge">
<title>c33:e&#45;&gt;c31:w</title>
<path fill="none" stroke="black" stroke-width="3" d="M464.49,-248.5C539.19,-248.5 433.3,-405.02 490.37,-420.3"/>
<polygon fill="black" stroke="black" stroke-width="3" points="490.15,-423.8 500.49,-421.5 490.97,-416.85 490.15,-423.8"/>
</g>
<!-- x4&#45;&gt;c33 -->
<g id="edge3" class="edge">
<title>x4:e&#45;&gt;c33:w</title>
<path fill="none" stroke="black" d="M316.17,-207.49C326.9,-211.32 332.6,-219.69 343.33,-223.52"/>
<polygon fill="none" stroke="black" points="315.84,-207.44 309.27,-210.42 303.99,-205.5 310.56,-202.52 315.84,-207.44"/>
<polygon fill="none" stroke="black" points="343.65,-223.57 350.21,-220.59 355.49,-225.5 348.93,-228.48 343.65,-223.57"/>
</g>
<!-- v5 -->
<g id="node19" class="node">
<title>v5</title>
<ellipse fill="none" stroke="black" cx="132.25" cy="-756.5" rx="42.49" ry="18"/>
<text text-anchor="middle" x="132.25" y="-752.8" font-family="Times,serif" font-size="14.00">4&#39;0001</text>
</g>
<!-- c34 -->
<g id="node21" class="node">
<title>c34</title>
<polygon fill="none" stroke="black" points="210.49,-643 210.49,-712 319.49,-712 319.49,-643 210.49,-643"/>
<text text-anchor="middle" x="223.99" y="-696.8" font-family="Times,serif" font-size="14.00">A</text>
<polyline fill="none" stroke="black" points="210.49,-689 237.49,-689 "/>
<text text-anchor="middle" x="223.99" y="-673.8" font-family="Times,serif" font-size="14.00">B</text>
<polyline fill="none" stroke="black" points="210.49,-666 237.49,-666 "/>
<text text-anchor="middle" x="223.99" y="-650.8" font-family="Times,serif" font-size="14.00">S</text>
<polyline fill="none" stroke="black" points="237.49,-643 237.49,-712 "/>
<text text-anchor="middle" x="265.49" y="-681.3" font-family="Times,serif" font-size="14.00">$35</text>
<text text-anchor="middle" x="265.49" y="-666.3" font-family="Times,serif" font-size="14.00">$mux</text>
<polyline fill="none" stroke="black" points="293.49,-643 293.49,-712 "/>
<text text-anchor="middle" x="306.49" y="-673.8" font-family="Times,serif" font-size="14.00">Y</text>
</g>
<!-- v5&#45;&gt;c34 -->
<g id="edge50" class="edge">
<title>v5:e&#45;&gt;c34:w</title>
<path fill="none" stroke="black" stroke-width="3" d="M174.49,-756.5C199.92,-756.5 186.38,-715.14 200.85,-703.51"/>
<polygon fill="black" stroke="black" stroke-width="3" points="201.99,-706.82 210.49,-700.5 199.9,-700.14 201.99,-706.82"/>
</g>
<!-- v6 -->
<g id="node20" class="node">
<title>v6</title>
<ellipse fill="none" stroke="black" cx="132.25" cy="-702.5" rx="42.49" ry="18"/>
<text text-anchor="middle" x="132.25" y="-698.8" font-family="Times,serif" font-size="14.00">4&#39;0010</text>
</g>
<!-- v6&#45;&gt;c34 -->
<g id="edge51" class="edge">
<title>v6:e&#45;&gt;c34:w</title>
<path fill="none" stroke="black" stroke-width="3" d="M174.49,-702.5C189.86,-702.5 191.26,-686.93 200.74,-680.37"/>
<polygon fill="black" stroke="black" stroke-width="3" points="201.89,-683.68 210.49,-677.5 199.91,-676.96 201.89,-683.68"/>
</g>
<!-- c34&#45;&gt;c32 -->
<g id="edge40" class="edge">
<title>c34:e&#45;&gt;c32:w</title>
<path fill="none" stroke="black" stroke-width="3" d="M319.49,-677.5C357.25,-677.5 322.11,-606.66 345.63,-592.83"/>
<polygon fill="black" stroke="black" stroke-width="3" points="346.56,-596.2 355.49,-590.5 344.96,-589.39 346.56,-596.2"/>
</g>
<!-- x7&#45;&gt;c34 -->
<g id="edge4" class="edge">
<title>x7:e&#45;&gt;c34:w</title>
<path fill="none" stroke="black" d="M183.23,-648.78C188.77,-650.05 193,-651.96 198.54,-653.22"/>
<polygon fill="none" stroke="black" points="183.18,-648.78 176.79,-652.12 171.25,-647.5 177.64,-644.16 183.18,-648.78"/>
<polygon fill="none" stroke="black" points="198.56,-653.23 204.95,-649.89 210.49,-654.5 204.1,-657.84 198.56,-653.23"/>
</g>
<!-- v8 -->
<g id="node23" class="node">
<title>v8</title>
<ellipse fill="none" stroke="black" cx="132.25" cy="-554.5" rx="42.49" ry="18"/>
<text text-anchor="middle" x="132.25" y="-550.8" font-family="Times,serif" font-size="14.00">4&#39;0011</text>
</g>
<!-- c35 -->
<g id="node25" class="node">
<title>c35</title>
<polygon fill="none" stroke="black" points="210.49,-476 210.49,-545 319.49,-545 319.49,-476 210.49,-476"/>
<text text-anchor="middle" x="223.99" y="-529.8" font-family="Times,serif" font-size="14.00">A</text>
<polyline fill="none" stroke="black" points="210.49,-522 237.49,-522 "/>
<text text-anchor="middle" x="223.99" y="-506.8" font-family="Times,serif" font-size="14.00">B</text>
<polyline fill="none" stroke="black" points="210.49,-499 237.49,-499 "/>
<text text-anchor="middle" x="223.99" y="-483.8" font-family="Times,serif" font-size="14.00">S</text>
<polyline fill="none" stroke="black" points="237.49,-476 237.49,-545 "/>
<text text-anchor="middle" x="265.49" y="-514.3" font-family="Times,serif" font-size="14.00">$38</text>
<text text-anchor="middle" x="265.49" y="-499.3" font-family="Times,serif" font-size="14.00">$mux</text>
<polyline fill="none" stroke="black" points="293.49,-476 293.49,-545 "/>
<text text-anchor="middle" x="306.49" y="-506.8" font-family="Times,serif" font-size="14.00">Y</text>
</g>
<!-- v8&#45;&gt;c35 -->
<g id="edge52" class="edge">
<title>v8:e&#45;&gt;c35:w</title>
<path fill="none" stroke="black" stroke-width="3" d="M174.49,-554.5C188.96,-554.5 191.49,-541.68 200.74,-536.08"/>
<polygon fill="black" stroke="black" stroke-width="3" points="201.72,-539.44 210.49,-533.5 199.93,-532.67 201.72,-539.44"/>
</g>
<!-- v9 -->
<g id="node24" class="node">
<title>v9</title>
<ellipse fill="none" stroke="black" cx="132.25" cy="-500.5" rx="42.49" ry="18"/>
<text text-anchor="middle" x="132.25" y="-496.8" font-family="Times,serif" font-size="14.00">4&#39;0100</text>
</g>
<!-- v9&#45;&gt;c35 -->
<g id="edge53" class="edge">
<title>v9:e&#45;&gt;c35:w</title>
<path fill="none" stroke="black" stroke-width="3" d="M174.49,-500.5C187.08,-500.5 191.73,-506.24 200.47,-509.02"/>
<polygon fill="black" stroke="black" stroke-width="3" points="200.09,-512.51 210.49,-510.5 201.11,-505.58 200.09,-512.51"/>
</g>
<!-- c35&#45;&gt;c32 -->
<g id="edge10" class="edge">
<title>c35:e&#45;&gt;c32:w</title>
<path fill="none" stroke="black" stroke-width="3" d="M319.49,-510.5C345.24,-510.5 331.19,-552.6 345.75,-564.44"/>
<polygon fill="black" stroke="black" stroke-width="3" points="344.9,-567.84 355.49,-567.5 347,-561.16 344.9,-567.84"/>
</g>
<!-- x10&#45;&gt;c35 -->
<g id="edge5" class="edge">
<title>x10:e&#45;&gt;c35:w</title>
<path fill="none" stroke="black" d="M182.81,-449.99C190.85,-458.12 190.95,-475.15 199.08,-483.16"/>
<polygon fill="none" stroke="black" points="182.43,-449.85 175.39,-451.4 171.25,-445.5 178.29,-443.95 182.43,-449.85"/>
<polygon fill="none" stroke="black" points="199.28,-483.24 206.31,-481.63 210.49,-487.5 203.46,-489.11 199.28,-483.24"/>
</g>
<!-- v11 -->
<g id="node27" class="node">
<title>v11</title>
<ellipse fill="none" stroke="black" cx="132.25" cy="-352.5" rx="42.49" ry="18"/>
<text text-anchor="middle" x="132.25" y="-348.8" font-family="Times,serif" font-size="14.00">4&#39;0101</text>
</g>
<!-- c36 -->
<g id="node29" class="node">
<title>c36</title>
<polygon fill="none" stroke="black" points="210.49,-256 210.49,-325 319.49,-325 319.49,-256 210.49,-256"/>
<text text-anchor="middle" x="223.99" y="-309.8" font-family="Times,serif" font-size="14.00">A</text>
<polyline fill="none" stroke="black" points="210.49,-302 237.49,-302 "/>
<text text-anchor="middle" x="223.99" y="-286.8" font-family="Times,serif" font-size="14.00">B</text>
<polyline fill="none" stroke="black" points="210.49,-279 237.49,-279 "/>
<text text-anchor="middle" x="223.99" y="-263.8" font-family="Times,serif" font-size="14.00">S</text>
<polyline fill="none" stroke="black" points="237.49,-256 237.49,-325 "/>
<text text-anchor="middle" x="265.49" y="-294.3" font-family="Times,serif" font-size="14.00">$41</text>
<text text-anchor="middle" x="265.49" y="-279.3" font-family="Times,serif" font-size="14.00">$mux</text>
<polyline fill="none" stroke="black" points="293.49,-256 293.49,-325 "/>
<text text-anchor="middle" x="306.49" y="-286.8" font-family="Times,serif" font-size="14.00">Y</text>
</g>
<!-- v11&#45;&gt;c36 -->
<g id="edge43" class="edge">
<title>v11:e&#45;&gt;c36:w</title>
<path fill="none" stroke="black" stroke-width="3" d="M174.49,-352.5C193.84,-352.5 189.8,-326.26 200.74,-316.83"/>
<polygon fill="black" stroke="black" stroke-width="3" points="202.16,-320.04 210.49,-313.5 199.9,-313.41 202.16,-320.04"/>
</g>
<!-- v12 -->
<g id="node28" class="node">
<title>v12</title>
<ellipse fill="none" stroke="black" cx="132.25" cy="-298.5" rx="42.49" ry="18"/>
<text text-anchor="middle" x="132.25" y="-294.8" font-family="Times,serif" font-size="14.00">4&#39;0110</text>
</g>
<!-- v12&#45;&gt;c36 -->
<g id="edge44" class="edge">
<title>v12:e&#45;&gt;c36:w</title>
<path fill="none" stroke="black" stroke-width="3" d="M174.49,-298.5C186.91,-298.5 191.77,-293.91 200.53,-291.68"/>
<polygon fill="black" stroke="black" stroke-width="3" points="200.97,-295.15 210.49,-290.5 200.15,-288.2 200.97,-295.15"/>
</g>
<!-- c36&#45;&gt;c33 -->
<g id="edge11" class="edge">
<title>c36:e&#45;&gt;c33:w</title>
<path fill="none" stroke="black" stroke-width="3" d="M319.49,-290.5C333.49,-290.5 336.55,-279.13 345.58,-273.98"/>
<polygon fill="black" stroke="black" stroke-width="3" points="346.64,-277.33 355.49,-271.5 344.94,-270.54 346.64,-277.33"/>
</g>
<!-- x13&#45;&gt;c36 -->
<g id="edge6" class="edge">
<title>x13:e&#45;&gt;c36:w</title>
<path fill="none" stroke="black" d="M182.84,-247.04C189.12,-251.53 192.45,-259.22 198.66,-263.79"/>
<polygon fill="none" stroke="black" points="182.72,-247.01 175.82,-249.08 171.25,-243.5 178.15,-241.43 182.72,-247.01"/>
<polygon fill="none" stroke="black" points="199.04,-263.91 205.97,-261.89 210.49,-267.5 203.57,-269.52 199.04,-263.91"/>
</g>
<!-- v14 -->
<g id="node31" class="node">
<title>v14</title>
<ellipse fill="none" stroke="black" cx="132.25" cy="-150.5" rx="42.49" ry="18"/>
<text text-anchor="middle" x="132.25" y="-146.8" font-family="Times,serif" font-size="14.00">4&#39;0111</text>
</g>
<!-- c37 -->
<g id="node33" class="node">
<title>c37</title>
<polygon fill="none" stroke="black" points="210.49,-78 210.49,-147 319.49,-147 319.49,-78 210.49,-78"/>
<text text-anchor="middle" x="223.99" y="-131.8" font-family="Times,serif" font-size="14.00">A</text>
<polyline fill="none" stroke="black" points="210.49,-124 237.49,-124 "/>
<text text-anchor="middle" x="223.99" y="-108.8" font-family="Times,serif" font-size="14.00">B</text>
<polyline fill="none" stroke="black" points="210.49,-101 237.49,-101 "/>
<text text-anchor="middle" x="223.99" y="-85.8" font-family="Times,serif" font-size="14.00">S</text>
<polyline fill="none" stroke="black" points="237.49,-78 237.49,-147 "/>
<text text-anchor="middle" x="265.49" y="-116.3" font-family="Times,serif" font-size="14.00">$44</text>
<text text-anchor="middle" x="265.49" y="-101.3" font-family="Times,serif" font-size="14.00">$mux</text>
<polyline fill="none" stroke="black" points="293.49,-78 293.49,-147 "/>
<text text-anchor="middle" x="306.49" y="-108.8" font-family="Times,serif" font-size="14.00">Y</text>
</g>
<!-- v14&#45;&gt;c37 -->
<g id="edge45" class="edge">
<title>v14:e&#45;&gt;c37:w</title>
<path fill="none" stroke="black" stroke-width="3" d="M174.49,-150.5C187.76,-150.5 191.66,-141.71 200.53,-137.59"/>
<polygon fill="black" stroke="black" stroke-width="3" points="201.42,-140.97 210.49,-135.5 199.99,-134.12 201.42,-140.97"/>
</g>
<!-- v15 -->
<g id="node32" class="node">
<title>v15</title>
<ellipse fill="none" stroke="black" cx="132.25" cy="-96.5" rx="42.49" ry="18"/>
<text text-anchor="middle" x="132.25" y="-92.8" font-family="Times,serif" font-size="14.00">4&#39;1000</text>
</g>
<!-- v15&#45;&gt;c37 -->
<g id="edge46" class="edge">
<title>v15:e&#45;&gt;c37:w</title>
<path fill="none" stroke="black" stroke-width="3" d="M174.49,-96.5C187.9,-96.5 191.62,-105.88 200.48,-110.28"/>
<polygon fill="black" stroke="black" stroke-width="3" points="199.97,-113.75 210.49,-112.5 201.49,-106.91 199.97,-113.75"/>
</g>
<!-- c37&#45;&gt;c33 -->
<g id="edge12" class="edge">
<title>c37:e&#45;&gt;c33:w</title>
<path fill="none" stroke="black" stroke-width="3" d="M319.49,-112.5C378.11,-112.5 303.51,-232.03 345.47,-246.97"/>
<polygon fill="black" stroke="black" stroke-width="3" points="345.08,-250.45 355.49,-248.5 346.13,-243.53 345.08,-250.45"/>
</g>
<!-- x16&#45;&gt;c37 -->
<g id="edge7" class="edge">
<title>x16:e&#45;&gt;c37:w</title>
<path fill="none" stroke="black" d="M182.74,-45.93C191.74,-55.12 190.03,-76.16 199.15,-85.22"/>
<polygon fill="none" stroke="black" points="182.44,-45.82 175.41,-47.39 171.25,-41.5 178.28,-39.93 182.44,-45.82"/>
<polygon fill="none" stroke="black" points="199.27,-85.26 206.29,-83.64 210.49,-89.5 203.47,-91.12 199.27,-85.26"/>
</g>
<!-- c38&#45;&gt;n16 -->
<g id="edge22" class="edge">
<title>c38:e&#45;&gt;n16:w</title>
<path fill="none" stroke="black" d="M1478.62,-516.5C1490.62,-516.5 1495.87,-516.5 1504.49,-516.5"/>
<polygon fill="black" stroke="black" points="1504.62,-520 1514.62,-516.5 1504.62,-513 1504.62,-520"/>
</g>
<!-- c39&#45;&gt;n14 -->
<g id="edge16" class="edge">
<title>c39:e&#45;&gt;n14:w</title>
<path fill="none" stroke="black" stroke-width="3" d="M799.99,-318.5C827.9,-318.5 835.72,-331.75 858.92,-334.85"/>
<polygon fill="black" stroke="black" stroke-width="3" points="858.85,-338.36 869.05,-335.5 859.3,-331.37 858.85,-338.36"/>
</g>
<!-- v17 -->
<g id="node37" class="node">
<title>v17</title>
<ellipse fill="none" stroke="black" cx="1108.12" cy="-547.5" rx="27" ry="18"/>
<text text-anchor="middle" x="1108.12" y="-543.8" font-family="Times,serif" font-size="14.00">1&#39;0</text>
</g>
<!-- v17&#45;&gt;c40 -->
<g id="edge47" class="edge">
<title>v17:e&#45;&gt;c40:w</title>
<path fill="none" stroke="black" d="M1136.12,-547.5C1162.55,-547.5 1165.91,-523.77 1186.58,-517.83"/>
<polygon fill="black" stroke="black" points="1187.16,-521.29 1196.62,-516.5 1186.24,-514.35 1187.16,-521.29"/>
</g>
<!-- v18 -->
<g id="node38" class="node">
<title>v18</title>
<ellipse fill="none" stroke="black" cx="1108.12" cy="-493.5" rx="27" ry="18"/>
<text text-anchor="middle" x="1108.12" y="-489.8" font-family="Times,serif" font-size="14.00">1&#39;1</text>
</g>
<!-- v18&#45;&gt;c40 -->
<g id="edge48" class="edge">
<title>v18:e&#45;&gt;c40:w</title>
<path fill="none" stroke="black" d="M1136.12,-493.5C1159.33,-493.5 1167.51,-493.5 1186.62,-493.5"/>
<polygon fill="black" stroke="black" points="1186.62,-497 1196.62,-493.5 1186.62,-490 1186.62,-497"/>
</g>
<!-- c40&#45;&gt;c38 -->
<g id="edge34" class="edge">
<title>c40:e&#45;&gt;c38:w</title>
<path fill="none" stroke="black" d="M1305.62,-493.5C1317.62,-493.5 1322.87,-493.5 1331.49,-493.5"/>
<polygon fill="black" stroke="black" points="1331.62,-497 1341.62,-493.5 1331.62,-490 1331.62,-497"/>
</g>
<!-- v20 -->
<g id="node40" class="node">
<title>v20</title>
<ellipse fill="none" stroke="black" cx="1251.12" cy="-189.5" rx="42.49" ry="18"/>
<text text-anchor="middle" x="1251.12" y="-185.8" font-family="Times,serif" font-size="14.00">4&#39;0000</text>
</g>
<!-- v20&#45;&gt;c41 -->
<g id="edge49" class="edge">
<title>v20:e&#45;&gt;c41:w</title>
<path fill="none" stroke="black" stroke-width="3" d="M1295.12,-189.5C1319.52,-189.5 1324.8,-206.8 1344.13,-211.39"/>
<polygon fill="black" stroke="black" stroke-width="3" points="1343.79,-214.87 1354.12,-212.5 1344.56,-207.92 1343.79,-214.87"/>
</g>
<!-- c41&#45;&gt;c39 -->
<g id="edge33" class="edge">
<title>c41:e&#45;&gt;c39:w</title>
<path fill="none" stroke="black" stroke-width="3" d="M1466.12,-212.5C1481.68,-212.5 1476.22,-236.59 1465.12,-247.5 1459.03,-253.48 859,-253.8 850.49,-254.5 765.57,-261.45 719.13,-221.22 660.99,-283.5 660.54,-283.99 660.09,-284.54 659.68,-285.14"/>
<polygon fill="black" stroke="black" stroke-width="3" points="656.19,-285.61 659.99,-295.5 663.19,-285.4 656.19,-285.61"/>
</g>
<!-- x19&#45;&gt;c41 -->
<g id="edge8" class="edge">
<title>x19:e&#45;&gt;c41:w</title>
<path fill="none" stroke="black" stroke-width="3" d="M1301.96,-286.22C1321.94,-277.54 1322.26,-246.59 1342.16,-237.83"/>
<polygon fill="none" stroke="black" stroke-width="3" points="1301.9,-286.23 1296.77,-291.29 1290.12,-288.5 1295.25,-283.44 1301.9,-286.23"/>
<polygon fill="none" stroke="black" stroke-width="3" points="1342.34,-237.79 1347.46,-232.72 1354.12,-235.5 1348.99,-240.57 1342.34,-237.79"/>
</g>
</g>
</svg>
